REM DIRINDEX 1\2\3,1\2\4,1\2\5,1\2\6
REM DIRNAME cjc157,folder01,folder02,folder03,folder04,folder05
TITLE ""
FILE "033 033.mp3" MP3
  TRACK 01 AUDIO
    TITLE "0:"
    INDEX 01 00:00:00
  TRACK 02 AUDIO
    TITLE "3:cjc157_1246"
    INDEX 01 00:00:11
  TRACK 03 AUDIO
    TITLE "0:"
    INDEX 01 00:01:28
  TRACK 04 AUDIO
    TITLE "4:cjc157_1247"
    INDEX 01 00:01:71
  TRACK 05 AUDIO
    TITLE "0:"
    INDEX 01 00:05:22
  TRACK 06 AUDIO
    TITLE "5:cjc157_1248"
    INDEX 01 00:05:65
  TRACK 07 AUDIO
    TITLE "0:"
    INDEX 01 00:08:48
  TRACK 08 AUDIO
    TITLE "5:cjc157_1249"
    INDEX 01 00:09:20
  TRACK 09 AUDIO
    TITLE "0:"
    INDEX 01 00:10:74
  TRACK 10 AUDIO
    TITLE "3:cjc157_1250"
    INDEX 01 00:11:40
  TRACK 11 AUDIO
    TITLE "0:"
    INDEX 01 00:12:61
  TRACK 12 AUDIO
    TITLE "4:cjc157_1251"
    INDEX 01 00:13:33
  TRACK 13 AUDIO
    TITLE "0:"
    INDEX 01 00:14:35
  TRACK 14 AUDIO
    TITLE "5:cjc157_1252"
    INDEX 01 00:15:07
  TRACK 15 AUDIO
    TITLE "0:"
    INDEX 01 00:17:35
  TRACK 16 AUDIO
    TITLE "5:cjc157_1253"
    INDEX 01 00:18:09
  TRACK 17 AUDIO
    TITLE "0:"
    INDEX 01 00:19:58
  TRACK 18 AUDIO
    TITLE "5:cjc157_1254"
    INDEX 01 00:20:28
  TRACK 19 AUDIO
    TITLE "0:"
    INDEX 01 00:21:68
  TRACK 20 AUDIO
    TITLE "3:cjc157_1255"
    INDEX 01 00:22:36
  TRACK 21 AUDIO
    TITLE "0:"
    INDEX 01 00:24:12
  TRACK 22 AUDIO
    TITLE "4:cjc157_1256"
    INDEX 01 00:24:57
  TRACK 23 AUDIO
    TITLE "0:"
    INDEX 01 00:25:74
  TRACK 24 AUDIO
    TITLE "5:cjc157_1257"
    INDEX 01 00:26:44
  TRACK 25 AUDIO
    TITLE "0:"
    INDEX 01 00:28:62
  TRACK 26 AUDIO
    TITLE "5:cjc157_1258"
    INDEX 01 00:29:33
  TRACK 27 AUDIO
    TITLE "0:"
    INDEX 01 00:32:13
  TRACK 28 AUDIO
    TITLE "3:cjc157_1259"
    INDEX 01 00:32:68
  TRACK 29 AUDIO
    TITLE "0:"
    INDEX 01 00:34:30
  TRACK 30 AUDIO
    TITLE "4:cjc157_1260"
    INDEX 01 00:35:00
  TRACK 31 AUDIO
    TITLE "0:"
    INDEX 01 00:36:31
  TRACK 32 AUDIO
    TITLE "5:cjc157_1261"
    INDEX 01 00:36:74
  TRACK 33 AUDIO
    TITLE "0:"
    INDEX 01 00:39:27
  TRACK 34 AUDIO
    TITLE "3:cjc157_1262"
    INDEX 01 00:39:74
  TRACK 35 AUDIO
    TITLE "0:"
    INDEX 01 00:41:36
  TRACK 36 AUDIO
    TITLE "4:cjc157_1263"
    INDEX 01 00:42:08
  TRACK 37 AUDIO
    TITLE "0:"
    INDEX 01 00:43:21
  TRACK 38 AUDIO
    TITLE "5:cjc157_1264"
    INDEX 01 00:43:64
  TRACK 39 AUDIO
    TITLE "0:"
    INDEX 01 00:46:64
  TRACK 40 AUDIO
    TITLE "5:cjc157_1265"
    INDEX 01 00:47:34
  TRACK 41 AUDIO
    TITLE "0:"
    INDEX 01 00:49:27
  TRACK 42 AUDIO
    TITLE "3:cjc157_1266"
    INDEX 01 00:50:01
  TRACK 43 AUDIO
    TITLE "0:"
    INDEX 01 00:51:26
  TRACK 44 AUDIO
    TITLE "4:cjc157_1267"
    INDEX 01 00:51:71
  TRACK 45 AUDIO
    TITLE "0:"
    INDEX 01 00:53:09
  TRACK 46 AUDIO
    TITLE "5:cjc157_1268"
    INDEX 01 00:53:57
  TRACK 47 AUDIO
    TITLE "0:"
    INDEX 01 00:56:08
  TRACK 48 AUDIO
    TITLE "5:cjc157_1269"
    INDEX 01 00:56:55
  TRACK 49 AUDIO
    TITLE "0:"
    INDEX 01 01:00:35
  TRACK 50 AUDIO
    TITLE "5:cjc157_1270"
    INDEX 01 01:01:05
  TRACK 51 AUDIO
    TITLE "0:"
    INDEX 01 01:02:67
  TRACK 52 AUDIO
    TITLE "3:cjc157_1271"
    INDEX 01 01:03:43
  TRACK 53 AUDIO
    TITLE "0:"
    INDEX 01 01:04:56
  TRACK 54 AUDIO
    TITLE "4:cjc157_1272"
    INDEX 01 01:05:30
  TRACK 55 AUDIO
    TITLE "0:"
    INDEX 01 01:06:47
  TRACK 56 AUDIO
    TITLE "5:cjc157_1273"
    INDEX 01 01:07:17
  TRACK 57 AUDIO
    TITLE "0:"
    INDEX 01 01:11:19
  TRACK 58 AUDIO
    TITLE "5:cjc157_1274"
    INDEX 01 01:11:64
  TRACK 59 AUDIO
    TITLE "0:"
    INDEX 01 01:15:05
  TRACK 60 AUDIO
    TITLE "3:cjc157_1275"
    INDEX 01 01:15:50
  TRACK 61 AUDIO
    TITLE "0:"
    INDEX 01 01:17:10
  TRACK 62 AUDIO
    TITLE "4:cjc157_1276"
    INDEX 01 01:17:59
  TRACK 63 AUDIO
    TITLE "0:"
    INDEX 01 01:21:02
  TRACK 64 AUDIO
    TITLE "5:cjc157_1277"
    INDEX 01 01:21:51
  TRACK 65 AUDIO
    TITLE "0:"
    INDEX 01 01:24:22
  TRACK 66 AUDIO
    TITLE "5:cjc157_1278"
    INDEX 01 01:24:69
  TRACK 67 AUDIO
    TITLE "0:"
    INDEX 01 01:27:08
  TRACK 68 AUDIO
    TITLE "3:cjc157_1279"
    INDEX 01 01:27:55
  TRACK 69 AUDIO
    TITLE "0:"
    INDEX 01 01:29:29
  TRACK 70 AUDIO
    TITLE "4:cjc157_1280"
    INDEX 01 01:30:03
  TRACK 71 AUDIO
    TITLE "0:"
    INDEX 01 01:31:22
  TRACK 72 AUDIO
    TITLE "5:cjc157_1281"
    INDEX 01 01:31:65
  TRACK 73 AUDIO
    TITLE "0:"
    INDEX 01 01:34:18
  TRACK 74 AUDIO
    TITLE "5:cjc157_1282"
    INDEX 01 01:34:69
  TRACK 75 AUDIO
    TITLE "0:"
    INDEX 01 01:37:22
  TRACK 76 AUDIO
    TITLE "3:cjc157_1283"
    INDEX 01 01:37:71
  TRACK 77 AUDIO
    TITLE "0:"
    INDEX 01 01:39:25
  TRACK 78 AUDIO
    TITLE "4:cjc157_1284"
    INDEX 01 01:39:72
  TRACK 79 AUDIO
    TITLE "0:"
    INDEX 01 01:41:18
  TRACK 80 AUDIO
    TITLE "5:cjc157_1285"
    INDEX 01 01:41:61
  TRACK 81 AUDIO
    TITLE "0:"
    INDEX 01 01:43:66
  TRACK 82 AUDIO
    TITLE "5:cjc157_1286"
    INDEX 01 01:44:40
  TRACK 83 AUDIO
    TITLE "0:"
    INDEX 01 01:47:21
